<svg width="20" height="22" viewBox="0 0 20 22" fill="none" xmlns="http://www.w3.org/2000/svg">
<g filter="url(#filter0_d_16092_252)">
<path d="M5.05762 0.75H14.6094C14.6466 0.75 14.6782 0.757236 14.7109 0.771484L14.7217 0.775391L14.7314 0.779297C14.7986 0.80616 14.8383 0.840443 14.8701 0.886719C14.9028 0.934312 14.917 0.977751 14.917 1.03613V12.9639C14.917 13.0222 14.9028 13.0657 14.8701 13.1133C14.8383 13.1596 14.7986 13.1938 14.7314 13.2207L14.7236 13.2236L14.7158 13.2275C14.7109 13.2296 14.6807 13.2412 14.6094 13.2412C14.5318 13.2412 14.4733 13.225 14.418 13.1885L14.3633 13.1445L10.3574 9.23438L9.83301 8.72363L9.30957 9.23438L5.30273 13.1455C5.21581 13.2264 5.14401 13.2499 5.05762 13.25C5.02036 13.25 4.98786 13.2428 4.95508 13.2285L4.94531 13.2246L4.93457 13.2207L4.85254 13.1738C4.83024 13.1562 4.81185 13.1365 4.7959 13.1133C4.76325 13.0657 4.75003 13.0222 4.75 12.9639V1.03613C4.75003 0.977751 4.76325 0.934311 4.7959 0.886719C4.82775 0.840293 4.86727 0.806216 4.93457 0.779297L4.94531 0.775391L4.95508 0.771484C4.98786 0.757223 5.02036 0.75 5.05762 0.75Z" stroke="white" stroke-width="1.5" shape-rendering="crispEdges"/>
</g>
<defs>
<filter id="filter0_d_16092_252" x="0" y="0" width="19.6667" height="22" filterUnits="userSpaceOnUse" color-interpolation-filters="sRGB">
<feFlood flood-opacity="0" result="BackgroundImageFix"/>
<feColorMatrix in="SourceAlpha" type="matrix" values="0 0 0 0 0 0 0 0 0 0 0 0 0 0 0 0 0 0 127 0" result="hardAlpha"/>
<feOffset dy="4"/>
<feGaussianBlur stdDeviation="2"/>
<feComposite in2="hardAlpha" operator="out"/>
<feColorMatrix type="matrix" values="0 0 0 0 0 0 0 0 0 0 0 0 0 0 0 0 0 0 0.25 0"/>
<feBlend mode="normal" in2="BackgroundImageFix" result="effect1_dropShadow_16092_252"/>
<feBlend mode="normal" in="SourceGraphic" in2="effect1_dropShadow_16092_252" result="shape"/>
</filter>
</defs>
</svg>
